<?xml version="1.0" encoding="utf-8"?>
<!-- Generator: Adobe Illustrator 26.5.0, SVG Export Plug-In . SVG Version: 6.00 Build 0)  -->
<svg version="1.1" id="Layer_1" xmlns="http://www.w3.org/2000/svg" xmlns:xlink="http://www.w3.org/1999/xlink" x="0px" y="0px"
	 viewBox="0 0 702.5 720" style="enable-background:new 0 0 702.5 720;" xml:space="preserve">
<style type="text/css">
	.st0{fill:#238DC1;}
</style>
<path class="st0" d="M699.6,308.3c-5.5-35.4-15.8-69.3-31.4-101.6c-11.8-24.3-26.1-46.9-43.2-67.8c-15.9-19.5-33.5-37.3-53.1-53
	c-37-29.7-78.2-51.2-123.9-64.2c-19.6-5.6-39.4-9.5-59.7-11.5c-5.7-0.5-11.4-0.2-17-1.1c-0.7,0-1.4,0-2.2,0c-0.7,0.5-1.4,0.5-2.2,0
	c-1.4,0-2.9,0-4.3,0c-1.9,0.6-3.8,0.6-5.7,0c-3.8,0-7.6,0-11.5,0c-1.9,0.6-3.8,0.6-5.7,0c-1.4,0-2.9,0-4.3,0c-0.7,0.5-1.4,0.5-2.2,0
	c-1,0-1.9,0-2.9,0c-4.8,0.7-9.7,0.4-14.5,0.8c-19.2,1.9-38,5.3-56.6,10.4c-36.3,9.9-70.1,25-101.5,45.7
	c-25.9,17-48.9,37.3-69.6,60.3c-19.7,21.9-36.1,46-49.7,72c-10.9,20.9-19.5,42.8-25.9,65.5c-5.5,19.3-9.4,39-11.4,59
	c-0.5,5.3-0.2,10.7-1.1,16c0,1.7,0,3.3,0,5c0.6,1,0.6,1.9,0,2.9c0,1.2,0,2.4,0,3.6c0.6,2.1,0.6,4.3,0,6.4c0,2.4,0,4.8,0,7.2
	c0.6,2.1,0.6,4.3,0,6.4c0,1.2,0,2.4,0,3.6c0.7,0.8,0.2,1.7,0.4,2.6c0,0.6,0.2,1.2-0.4,1.7c0,1.2,0,2.4,0,3.6c0.7,4.5,0.4,9,0.8,13.5
	c1.9,21.1,5.9,41.8,11.8,62.2c7.2,24.7,16.8,48.5,29.2,71.1c13.9,25.4,30.4,48.9,50.1,70c17.7,19,37,36.2,58.4,51
	c25.9,17.9,53.6,32.3,83.3,42.7c32.4,11.3,65.6,18.6,100.1,19.3c20.5,0.4,41,0.7,61.4-1.8c43.9-5.5,85.2-18.8,124.1-39.9
	c37.5-20.3,70-46.8,98-78.8c23.2-26.5,41.9-56,56-88.3c17.9-40.9,28.5-83.5,29.3-128.3C703.1,352.3,703,330.3,699.6,308.3z
	 M350.6,664.7c-167.2-0.1-303.8-137-303.8-304.4C46.9,192.2,183.7,55.8,352.1,55.9C519.2,56,656,193.3,655.7,360.5
	C655.3,528.7,518.8,664.9,350.6,664.7z"/>
<path class="st0" d="M351.4,196.4c61.9,0,123.7,0,185.6,0c12,0,21.4,6.8,24.2,17.5c3.8,14.7-6.6,28.6-22,29.5c-0.8,0-1.7,0-2.5,0
	c-123.6,0-247.3,0-370.9,0c-12.5,0-22-6.9-24.6-17.8c-3.6-15.1,7.3-29,23.1-29.1c14.6-0.1,29.1,0,43.7,0
	C255.9,196.4,303.6,196.4,351.4,196.4z"/>
<path class="st0" d="M351.2,383.8c-61.9,0-123.7,0-185.6,0c-12.2,0-21.7-6.9-24.3-17.7c-3.6-14.8,6.9-28.6,22.3-29.2
	c0.8,0,1.7,0,2.5,0c123.5,0,247,0,370.5,0c12.3,0,21.8,6.7,24.6,17.4c4,14.9-6.9,29.2-22.6,29.6c-5.6,0.1-11.2,0-16.8,0
	C464.9,383.8,408.1,383.8,351.2,383.8z"/>
<path class="st0" d="M351.2,477.3c62,0,124,0,186,0c13.9,0,24.6,9.8,24.8,22.9c0.2,13-9.6,23.4-22.8,24.1c-0.7,0-1.4,0-2.1,0
	c-123.9,0-247.7,0-371.6,0c-12,0-21.4-6.9-24.1-17.5c-3.8-15.3,7.3-29.3,23.5-29.4c23.5-0.1,47.1,0,70.6,0
	C274,477.3,312.6,477.3,351.2,477.3z"/>
</svg>
