<?xml version="1.0" encoding="utf-8"?>
<!-- Generator: Adobe Illustrator 26.5.0, SVG Export Plug-In . SVG Version: 6.00 Build 0)  -->
<svg version="1.1" id="Layer_1" xmlns="http://www.w3.org/2000/svg" xmlns:xlink="http://www.w3.org/1999/xlink" x="0px" y="0px"
	 viewBox="0 0 236.5 66.6" style="enable-background:new 0 0 236.5 66.6;" xml:space="preserve">
<style type="text/css">
	.st0{fill:#F6F9FC;}
	.st1{fill:none;}
	.st2{font-family:'Palatino-Roman';}
	.st3{font-size:10px;}
</style>
<g id="Layer_2_00000028305794498516023170000014785932583575980961_">
	<g id="Layer_1-2">
		<path class="st0" d="M70.6,15.3c-1.2,0-2.2-1-2.2-2.2c0,0,0,0,0,0v-1.6H85v-0.9H68c-1.5,0-2.8-1.2-2.8-2.8c0,0,0,0,0,0V5.9H85V0
			H57.6v15.9c0,13.1,13.7,17.2,13.7,17.2l0,0V16.2h1.6c1.2,0,2.2,1,2.2,2.2c0,0,0,0,0,0v13c0.3-0.2,0.6-0.4,0.9-0.5V16.2h1.6
			c1.2,0,2.2,1,2.2,2.2c0,0,0,0,0,0v9.5c0.3-0.3,0.6-0.6,0.9-1V16.2h1.6c1.2,0,2.2,1,2.2,2.2c0,0,0,0,0,0v0.8
			c0.2-1.1,0.3-2.1,0.3-3.2v-0.6H70.6z"/>
		<path class="st0" d="M170.4,5.9v0.8l0,0c1.6,0,3.1,1,3.1,4.2l0.1,11c0.1,2.1-0.5,4.1-1.9,5.6c-1.6,1.4-3.6,2.2-5.7,2
			c-4.9,0-6.6-2.4-6.6-7.5l-0.1-11.2c-0.1-3.2,1.6-4.2,3.2-4.2l0,0V5.9h-18.7v0.8l0,0c1.6,0,3.1,1,3.1,4.2l0.1,14.1H147
			c-0.5-1.2-1.2-2.3-2-3.2L133,5.9h-15.2c-0.2,0-0.4,0.1-0.5,0.3l-6,15.2c-0.7,1.6-1.2,3.2-1.7,4.8v0.2c-0.4-1.7-0.9-3.4-1.6-5.1
			l-6-15.1c-0.1-0.2-0.3-0.4-0.5-0.4h-8v0.8h0.1c1.6,0,3.1,1,3.1,4.2l-0.3,12.5c-0.1,6.4-0.5,6.7-1.9,7.1l-1,0.2v0.8h8.1v-0.8
			l-1-0.2c-1.7-0.4-2.1-0.8-2-9l0-7.4c0-1.9,0-3.9,0-4.2h0.1c0.2,0.9,1,2.8,1.4,4l6.8,17.3c0.1,0.2,0.2,0.3,0.4,0.3h1.8
			c0.2,0,0.4-0.1,0.4-0.3l7-17.6c0.6-1.4,1.2-3.2,1.4-3.8h0.1c0,0.9,0,2.6,0,3.8l0.2,13.1c0,3.2-0.6,3.4-2.2,3.8l-1,0.2v0.8h19v-0.7
			l-1.2-0.2c-1.6-0.3-1.9-1.2-2-8.1v-8.7c0-0.9-0.1-2.1-0.1-2.6h0.2c0.5,1,1.1,1.9,1.8,2.8l13.7,17.6h3l-0.1-20.6
			c-0.1-3.2,1.6-4.2,3.3-4.2s3.1,1,3.1,4.2l-0.1,11.7c0,5.7,3.5,8.9,9.9,8.9s10.3-3.4,10.3-9.5l-0.1-11c-0.1-3.1,1.6-4.2,3.2-4.2
			l0,0V5.9H170.4z M128.4,27.4c0.1,1.7-1.2,3.2-2.9,3.3c0,0,0,0-0.1,0c-0.9,0-2.9-0.8-2.9-4c0-3.5-0.3-15.8-0.3-15.8
			c-0.1-3.2,1.6-4.2,3.2-4.2s3.1,1,3.1,4.2L128.4,27.4z"/>
	</g>
</g>
<rect x="5.4" y="39.5" class="st1" width="225.8" height="21.9"/>
<text transform="matrix(1 0 0 1 19.9649 46.7555)"><tspan x="0" y="0" class="st0 st2 st3">NATURAL, HEALTH &amp; MATHEMATICAL </tspan><tspan x="74" y="12" class="st0 st2 st3">SCIENCES</tspan></text>
</svg>
