<?xml version="1.0" encoding="utf-8"?>
<!-- Generator: Adobe Illustrator 26.5.0, SVG Export Plug-In . SVG Version: 6.00 Build 0)  -->
<svg version="1.1" id="Layer_1" xmlns="http://www.w3.org/2000/svg" xmlns:xlink="http://www.w3.org/1999/xlink" x="0px" y="0px"
	 viewBox="0 0 1280 720" style="enable-background:new 0 0 1280 720;" xml:space="preserve">
<style type="text/css">
	.st0{fill:none;stroke:#EA0029;stroke-width:3;stroke-miterlimit:10;}
</style>
<line class="st0" x1="209" y1="339.8" x2="216" y2="305.9"/>
<line class="st0" x1="1065.9" y1="339.8" x2="1072.9" y2="305.9"/>
<line class="st0" x1="236.5" y1="339.8" x2="243.5" y2="305.9"/>
<line class="st0" x1="263" y1="339.8" x2="270" y2="305.9"/>
<line class="st0" x1="289.6" y1="339.8" x2="296.6" y2="305.9"/>
<line class="st0" x1="316.3" y1="339.8" x2="323.3" y2="305.9"/>
<line class="st0" x1="343.8" y1="339.8" x2="350.8" y2="305.9"/>
<line class="st0" x1="370.3" y1="339.8" x2="377.3" y2="305.9"/>
<line class="st0" x1="396.9" y1="339.8" x2="403.9" y2="305.9"/>
<line class="st0" x1="423.5" y1="339.8" x2="430.5" y2="305.9"/>
<line class="st0" x1="451" y1="339.8" x2="458" y2="305.9"/>
<line class="st0" x1="477.5" y1="339.8" x2="484.5" y2="305.9"/>
<line class="st0" x1="504.1" y1="339.8" x2="511.1" y2="305.9"/>
<line class="st0" x1="530.8" y1="339.8" x2="537.8" y2="305.9"/>
<line class="st0" x1="558.3" y1="339.8" x2="565.3" y2="305.9"/>
<line class="st0" x1="584.8" y1="339.8" x2="591.8" y2="305.9"/>
<line class="st0" x1="611.4" y1="339.8" x2="618.4" y2="305.9"/>
<line class="st0" x1="637.9" y1="339.1" x2="644.9" y2="305.2"/>
<line class="st0" x1="665.4" y1="339.1" x2="672.4" y2="305.2"/>
<line class="st0" x1="692" y1="339.1" x2="699" y2="305.2"/>
<line class="st0" x1="718.5" y1="339.1" x2="725.5" y2="305.2"/>
<line class="st0" x1="745.2" y1="339.1" x2="752.2" y2="305.2"/>
<line class="st0" x1="772.7" y1="339.1" x2="779.7" y2="305.2"/>
<line class="st0" x1="799.2" y1="339.1" x2="806.2" y2="305.2"/>
<line class="st0" x1="825.8" y1="339.1" x2="832.8" y2="305.2"/>
<line class="st0" x1="852.4" y1="339.1" x2="859.4" y2="305.2"/>
<line class="st0" x1="879.9" y1="339.1" x2="886.9" y2="305.2"/>
<line class="st0" x1="906.5" y1="339.1" x2="913.5" y2="305.2"/>
<line class="st0" x1="933" y1="339.1" x2="940" y2="305.2"/>
<line class="st0" x1="959.7" y1="339.1" x2="966.7" y2="305.2"/>
<line class="st0" x1="987.2" y1="339.1" x2="994.2" y2="305.2"/>
<line class="st0" x1="1013.7" y1="339.1" x2="1020.7" y2="305.2"/>
<line class="st0" x1="1040.3" y1="339.1" x2="1047.3" y2="305.2"/>
</svg>
